<svg fill="#ff0000" width="800px" height="800px" viewBox="0 0 1920 1920" xmlns="http://www.w3.org/2000/svg">

  <!-- 外圆 -->
  <path d="
  M960 0
  c529.36 0 960 430.645 960 960
  0 529.36-430.64 960-960 960
  -529.355 0-960-430.64-960-960
  C0 430.645 430.645 0 960 0
  Z

  m0 112.941
  c-467.125 0-847.059 379.934-847.059 847.059
  0 467.12 379.934 847.06 847.059 847.06
  467.12 0 847.06-379.94 847.06-847.06
  0-467.125-379.94-847.059-847.06-847.059
  Z
  "/>

  <!-- 左竖线 -->
  <rect
    x="720"
    y="480"
    width="120"
    height="960"
    rx="20"
  />

  <!-- 右竖线 -->
  <rect
    x="1080"
    y="480"
    width="120"
    height="960"
    rx="20"
  />

</svg>